<svg width="510" height="510" viewBox="0 0 510 510" fill="none" xmlns="http://www.w3.org/2000/svg">
<rect width="510" height="510" rx="40.8" fill="white"/>
<path d="M127.459 95.6259H75.4011V440.937H127.459V95.6259Z" fill="#1A1A1A"/>
<path d="M273.22 387.81H75.4011V440.935H273.22V387.81Z" fill="#1A1A1A"/>
<path d="M278.425 95.6259H221.162V440.937H278.425V95.6259Z" fill="#16A349"/>
<path d="M221.162 95.6259H278.425L434.598 440.937H377.335L221.162 95.6259Z" fill="#1A1A1A"/>
<path d="M429.392 95.6259H377.335V440.937H429.392V95.6259Z" fill="#1A1A1A"/>
<path d="M270.617 53.1251H228.971C224.658 53.1251 221.162 56.6928 221.162 61.0938V82.3437C221.162 86.7447 224.658 90.3124 228.971 90.3124H270.617C274.929 90.3124 278.425 86.7447 278.425 82.3437V61.0938C278.425 56.6928 274.929 53.1251 270.617 53.1251Z" fill="#16A349"/>
<path d="M432.968 445.339H77.0309C75.5639 445.339 74.3746 446.63 74.3746 448.223V453.991C74.3746 455.584 75.5639 456.875 77.0309 456.875H432.968C434.435 456.875 435.624 455.584 435.624 453.991V448.223C435.624 446.63 434.435 445.339 432.968 445.339Z" fill="#16A349"/>
</svg>
