<svg width="124" height="24" viewBox="0 0 124 24" fill="none" xmlns="http://www.w3.org/2000/svg">
<path d="M116.158 2.1897C116.158 1.52484 116.379 0.997289 116.821 0.607046C117.248 0.202349 117.778 0 118.411 0H124V2.36314H118.831C118.654 2.36314 118.514 2.41373 118.411 2.5149C118.308 2.60162 118.257 2.73893 118.257 2.92682V3.96747H116.158V2.1897ZM119.229 4.09756H122.41V17.8428H119.229V4.09756Z" fill="url(#paint0_linear_969_342)"/>
<path d="M112.55 4.46613H115.377V7.26287H112.55V4.46613ZM110.274 17.8428C110.127 17.8428 110.053 17.7705 110.053 17.626V14.7859C110.053 14.6414 110.127 14.5691 110.274 14.5691H113.367C113.647 14.5691 113.882 14.4751 114.074 14.2872C114.265 14.0849 114.361 13.8392 114.361 13.5501V9.10568H117.542V13.7452C117.542 14.4824 117.351 15.1689 116.968 15.8049C116.599 16.4264 116.099 16.925 115.466 17.3008C114.832 17.6621 114.14 17.8428 113.389 17.8428H110.274Z" fill="url(#paint1_linear_969_342)"/>
<path d="M110.265 14.5691C110.412 14.5691 110.486 14.6414 110.486 14.7859V17.626C110.486 17.7706 110.412 17.8428 110.265 17.8428H109.315C108.21 17.8428 107.342 17.4598 106.708 16.6938C106.296 17.0551 105.825 17.337 105.295 17.5393C104.764 17.7417 104.212 17.8428 103.638 17.8428H98.7117C98.5645 17.8428 98.4908 17.7706 98.4908 17.626V14.7859C98.4908 14.6414 98.5645 14.5691 98.7117 14.5691H103.682C104.08 14.5691 104.418 14.439 104.698 14.1789C104.978 13.9187 105.118 13.5718 105.118 13.1382C105.118 12.6179 104.867 12.206 104.367 11.9025L99.3744 8.67211V6.30897L103.77 1.71277L105.957 3.72903L102.666 7.08945L106.333 9.45259C106.951 9.84284 107.43 10.3704 107.769 11.0352C108.122 11.6857 108.299 12.4083 108.299 13.2033V13.5501C108.299 13.8392 108.394 14.0849 108.586 14.2873C108.777 14.4752 109.02 14.5691 109.315 14.5691H110.265Z" fill="url(#paint2_linear_969_342)"/>
<path d="M95.7348 17.8428C95.5875 17.8428 95.5139 17.7705 95.5139 17.626V14.7859C95.5139 14.6414 95.5875 14.5691 95.7348 14.5691H98.7169C98.8642 14.5691 98.9378 14.6414 98.9378 14.7859V17.626C98.9378 17.7705 98.8642 17.8428 98.7169 17.8428H95.7348Z" fill="url(#paint3_linear_969_342)"/>
<path d="M92.7579 17.8428C92.6106 17.8428 92.537 17.7705 92.537 17.626V14.7859C92.537 14.6414 92.6106 14.5691 92.7579 14.5691H95.74C95.8872 14.5691 95.9609 14.6414 95.9609 14.7859V17.626C95.9609 17.7705 95.8872 17.8428 95.74 17.8428H92.7579Z" fill="url(#paint4_linear_969_342)"/>
<path d="M89.7809 17.8428C89.6336 17.8428 89.56 17.7705 89.56 17.626V14.7859C89.56 14.6414 89.6336 14.5691 89.7809 14.5691H92.763C92.9103 14.5691 92.9839 14.6414 92.9839 14.7859V17.626C92.9839 17.7705 92.9103 17.8428 92.763 17.8428H89.7809Z" fill="url(#paint5_linear_969_342)"/>
<path d="M86.8039 17.8428C86.6566 17.8428 86.583 17.7705 86.583 17.626V14.7859C86.583 14.6414 86.6566 14.5691 86.8039 14.5691H89.786C89.9333 14.5691 90.0069 14.6414 90.0069 14.7859V17.626C90.0069 17.7705 89.9333 17.8428 89.786 17.8428H86.8039Z" fill="url(#paint6_linear_969_342)"/>
<path d="M83.8269 17.8428C83.6796 17.8428 83.606 17.7705 83.606 17.626V14.7859C83.606 14.6414 83.6796 14.5691 83.8269 14.5691H86.809C86.9563 14.5691 87.0299 14.6414 87.0299 14.7859V17.626C87.0299 17.7705 86.9563 17.8428 86.809 17.8428H83.8269Z" fill="url(#paint7_linear_969_342)"/>
<path d="M83.8333 14.5691C83.9806 14.5691 84.0542 14.6414 84.0542 14.7859V17.626C84.0542 17.7706 83.9806 17.8428 83.8333 17.8428H82.8392C82.7214 18.8401 82.4195 19.6784 81.9336 20.3577C81.4623 21.037 80.7775 21.6441 79.8792 22.1789C78.9956 22.7281 77.7586 23.3351 76.1681 24L75.1741 21.2466C76.4847 20.6974 77.4567 20.2493 78.0899 19.9024C78.7379 19.5556 79.1797 19.2304 79.4153 18.9268C79.6509 18.6233 79.7688 18.262 79.7688 17.8428H78.3329C77.4493 17.8428 76.6394 17.6477 75.903 17.2575C75.1667 16.8672 74.5776 16.3324 74.1358 15.6531C73.7088 14.9594 73.4952 14.1861 73.4952 13.3333C73.4952 12.4661 73.7088 11.6712 74.1358 10.9485C74.5776 10.2259 75.1667 9.65494 75.903 9.23579C76.6394 8.80219 77.4493 8.58539 78.3329 8.58539C79.1871 8.58539 79.9676 8.80219 80.6744 9.23579C81.3813 9.65494 81.9336 10.2259 82.3312 10.9485C82.7288 11.6712 82.9276 12.4661 82.9276 13.3333V14.5691H83.8333ZM79.7688 13.3117C79.7688 12.8925 79.6289 12.5456 79.349 12.271C79.084 11.9964 78.7453 11.8591 78.3329 11.8591C77.9058 11.8591 77.545 11.9964 77.2505 12.271C76.9707 12.5456 76.8308 12.8925 76.8308 13.3117C76.8308 13.7308 76.9707 14.0777 77.2505 14.3523C77.545 14.6269 77.9058 14.7642 78.3329 14.7642H79.7688V13.3117Z" fill="url(#paint8_linear_969_342)"/>
<path d="M63.7878 14.5691C64.1118 14.5691 64.3695 14.4751 64.5609 14.2872C64.7671 14.0993 64.8702 13.8609 64.8702 13.5718C64.8702 13.3694 64.8039 13.196 64.6714 13.0515C64.5536 12.8925 64.3327 12.7046 64.0087 12.4878L59.3698 9.36583L61.1591 6.78589L66.3281 10.2981C66.8877 10.7172 67.3074 11.1797 67.5872 11.6856C67.8818 12.177 68.029 12.7768 68.029 13.4851C68.029 14.2945 67.8229 15.0316 67.4105 15.6964C67.0129 16.3613 66.468 16.8889 65.7759 17.2791C65.0837 17.6549 64.3327 17.8428 63.5227 17.8428H58.2653V14.5691H63.7878Z" fill="url(#paint9_linear_969_342)"/>
<path d="M49.9156 17.8428C49.7684 17.8428 49.6947 17.7706 49.6947 17.626V14.7859C49.6947 14.6414 49.7684 14.5691 49.9156 14.5691H52.3013C52.5811 14.5691 52.8168 14.4679 53.0082 14.2656C53.2144 14.0632 53.3175 13.8248 53.3175 13.5502V9.10571H56.4763V13.7453C56.4763 14.4824 56.2922 15.1689 55.9241 15.8049C55.5559 16.4264 55.0552 16.925 54.422 17.3008C53.7887 17.6622 53.0892 17.8428 52.3234 17.8428H49.9156ZM49.9377 19.7073H52.7652V22.4824H49.9377V19.7073ZM53.9139 19.7073H56.7635V22.4824H53.9139V19.7073Z" fill="url(#paint10_linear_969_342)"/>
<path d="M46.9386 17.8428C46.7913 17.8428 46.7177 17.7705 46.7177 17.626V14.7859C46.7177 14.6414 46.7913 14.5691 46.9386 14.5691H49.9207C50.068 14.5691 50.1416 14.6414 50.1416 14.7859V17.626C50.1416 17.7705 50.068 17.8428 49.9207 17.8428H46.9386Z" fill="url(#paint11_linear_969_342)"/>
<path d="M43.9617 17.8428C43.8145 17.8428 43.7408 17.7705 43.7408 17.626V14.7859C43.7408 14.6414 43.8145 14.5691 43.9617 14.5691H46.9439C47.0911 14.5691 47.1648 14.6414 47.1648 14.7859V17.626C47.1648 17.7705 47.0911 17.8428 46.9439 17.8428H43.9617Z" fill="url(#paint12_linear_969_342)"/>
<path d="M40.9848 17.8428C40.8375 17.8428 40.7639 17.7705 40.7639 17.626V14.7859C40.7639 14.6414 40.8375 14.5691 40.9848 14.5691H43.9669C44.1142 14.5691 44.1878 14.6414 44.1878 14.7859V17.626C44.1878 17.7705 44.1142 17.8428 43.9669 17.8428H40.9848Z" fill="url(#paint13_linear_969_342)"/>
<path d="M38.0078 17.8428C37.8606 17.8428 37.7869 17.7705 37.7869 17.626V14.7859C37.7869 14.6414 37.8606 14.5691 38.0078 14.5691H40.99C41.1372 14.5691 41.2109 14.6414 41.2109 14.7859V17.626C41.2109 17.7705 41.1372 17.8428 40.99 17.8428H38.0078Z" fill="url(#paint14_linear_969_342)"/>
<path d="M35.0308 17.8428C34.8836 17.8428 34.8099 17.7705 34.8099 17.626V14.7859C34.8099 14.6414 34.8836 14.5691 35.0308 14.5691H38.013C38.1602 14.5691 38.2339 14.6414 38.2339 14.7859V17.626C38.2339 17.7705 38.1602 17.8428 38.013 17.8428H35.0308Z" fill="url(#paint15_linear_969_342)"/>
<path d="M32.9131 5.11652V7.89158H30.0856V5.11652H32.9131ZM35.0337 14.5691C35.181 14.5691 35.2546 14.6413 35.2546 14.7859V17.626C35.2546 17.7705 35.181 17.8428 35.0337 17.8428H34.106C33.7231 17.8428 33.377 17.7994 33.0677 17.7127C33.0088 18.7244 32.81 19.5772 32.4713 20.271C32.1326 20.9792 31.5951 21.6151 30.8588 22.1788C30.1224 22.757 29.0916 23.364 27.7662 24L26.5733 21.3767C27.6189 20.7841 28.3626 20.3071 28.8044 19.9458C29.2462 19.5844 29.5407 19.1942 29.688 18.775C29.8353 18.3559 29.9089 17.7488 29.9089 16.9539V9.75608H33.0898V13.5501C33.0898 13.8392 33.1856 14.0849 33.377 14.2872C33.5685 14.4751 33.8114 14.5691 34.106 14.5691H35.0337Z" fill="url(#paint16_linear_969_342)"/>
<path d="M24.6569 3.23041H27.8378V17.8428H24.6569V3.23041Z" fill="url(#paint17_linear_969_342)"/>
<path d="M16.2632 17.8428C16.1159 17.8428 16.0423 17.7706 16.0423 17.626V14.7859C16.0423 14.6414 16.1159 14.5691 16.2632 14.5691H18.6489C18.9287 14.5691 19.1643 14.4679 19.3558 14.2656C19.5619 14.0632 19.665 13.8248 19.665 13.5502V9.10571H22.8239V13.7453C22.8239 14.4824 22.6398 15.1689 22.2716 15.8049C21.9035 16.4264 21.4028 16.925 20.7695 17.3008C20.1363 17.6622 19.4368 17.8428 18.671 17.8428H16.2632ZM16.2853 19.7073H19.1128V22.4824H16.2853V19.7073ZM20.2615 19.7073H23.111V22.4824H20.2615V19.7073Z" fill="url(#paint18_linear_969_342)"/>
<path d="M8.4825 7.73981V10.5149H5.63291V7.73981H8.4825ZM16.2581 14.5691C16.4054 14.5691 16.479 14.6413 16.479 14.7859V17.626C16.479 17.7705 16.4054 17.8428 16.2581 17.8428H15.3083C14.6308 17.8428 14.0712 17.6838 13.6294 17.3658C13.0846 18.6522 12.223 19.6856 11.0449 20.4661C9.88152 21.261 8.57086 21.6585 7.11293 21.6585C5.83172 21.6585 4.64623 21.3405 3.55647 20.7046C2.4667 20.0831 1.59783 19.2375 0.949863 18.168C0.316621 17.0984 0 15.9349 0 14.6775V10.6233H3.18094V14.504C3.18094 15.1978 3.35766 15.841 3.71109 16.4336C4.06453 17.0262 4.54314 17.4959 5.14693 17.8428C5.75072 18.1897 6.40606 18.3631 7.11293 18.3631C7.83453 18.3631 8.49723 18.1897 9.10102 17.8428C9.71953 17.4959 10.2055 17.0262 10.5589 16.4336C10.9124 15.841 11.0891 15.1978 11.0891 14.504V9.75606H14.2921V13.5501C14.2921 13.8392 14.3879 14.0849 14.5793 14.2872C14.7855 14.4751 15.0285 14.5691 15.3083 14.5691H16.2581Z" fill="url(#paint19_linear_969_342)"/>
<defs>
<linearGradient id="paint0_linear_969_342" x1="-1.0161" y1="10.1644" x2="123.222" y2="18.04" gradientUnits="userSpaceOnUse">
<stop stop-color="#147117"/>
<stop offset="1" stop-color="#16A349"/>
</linearGradient>
<linearGradient id="paint1_linear_969_342" x1="-1.01615" y1="10.1644" x2="123.222" y2="18.04" gradientUnits="userSpaceOnUse">
<stop stop-color="#147117"/>
<stop offset="1" stop-color="#16A349"/>
</linearGradient>
<linearGradient id="paint2_linear_969_342" x1="-1.01615" y1="10.1644" x2="123.222" y2="18.04" gradientUnits="userSpaceOnUse">
<stop stop-color="#147117"/>
<stop offset="1" stop-color="#16A349"/>
</linearGradient>
<linearGradient id="paint3_linear_969_342" x1="-1.01613" y1="10.1644" x2="123.222" y2="18.04" gradientUnits="userSpaceOnUse">
<stop stop-color="#147117"/>
<stop offset="1" stop-color="#16A349"/>
</linearGradient>
<linearGradient id="paint4_linear_969_342" x1="-1.01614" y1="10.1644" x2="123.222" y2="18.04" gradientUnits="userSpaceOnUse">
<stop stop-color="#147117"/>
<stop offset="1" stop-color="#16A349"/>
</linearGradient>
<linearGradient id="paint5_linear_969_342" x1="-1.01614" y1="10.1644" x2="123.222" y2="18.04" gradientUnits="userSpaceOnUse">
<stop stop-color="#147117"/>
<stop offset="1" stop-color="#16A349"/>
</linearGradient>
<linearGradient id="paint6_linear_969_342" x1="-1.01618" y1="10.1644" x2="123.222" y2="18.04" gradientUnits="userSpaceOnUse">
<stop stop-color="#147117"/>
<stop offset="1" stop-color="#16A349"/>
</linearGradient>
<linearGradient id="paint7_linear_969_342" x1="-1.01622" y1="10.1644" x2="123.222" y2="18.04" gradientUnits="userSpaceOnUse">
<stop stop-color="#147117"/>
<stop offset="1" stop-color="#16A349"/>
</linearGradient>
<linearGradient id="paint8_linear_969_342" x1="-1.01605" y1="10.1644" x2="123.222" y2="18.04" gradientUnits="userSpaceOnUse">
<stop stop-color="#147117"/>
<stop offset="1" stop-color="#16A349"/>
</linearGradient>
<linearGradient id="paint9_linear_969_342" x1="-1.01606" y1="10.1644" x2="123.222" y2="18.04" gradientUnits="userSpaceOnUse">
<stop stop-color="#147117"/>
<stop offset="1" stop-color="#16A349"/>
</linearGradient>
<linearGradient id="paint10_linear_969_342" x1="-1.01613" y1="10.1644" x2="123.222" y2="18.04" gradientUnits="userSpaceOnUse">
<stop stop-color="#147117"/>
<stop offset="1" stop-color="#16A349"/>
</linearGradient>
<linearGradient id="paint11_linear_969_342" x1="-1.01619" y1="10.1644" x2="123.222" y2="18.04" gradientUnits="userSpaceOnUse">
<stop stop-color="#147117"/>
<stop offset="1" stop-color="#16A349"/>
</linearGradient>
<linearGradient id="paint12_linear_969_342" x1="-1.01611" y1="10.1644" x2="123.222" y2="18.04" gradientUnits="userSpaceOnUse">
<stop stop-color="#147117"/>
<stop offset="1" stop-color="#16A349"/>
</linearGradient>
<linearGradient id="paint13_linear_969_342" x1="-1.01615" y1="10.1644" x2="123.222" y2="18.04" gradientUnits="userSpaceOnUse">
<stop stop-color="#147117"/>
<stop offset="1" stop-color="#16A349"/>
</linearGradient>
<linearGradient id="paint14_linear_969_342" x1="-1.01612" y1="10.1644" x2="123.222" y2="18.04" gradientUnits="userSpaceOnUse">
<stop stop-color="#147117"/>
<stop offset="1" stop-color="#16A349"/>
</linearGradient>
<linearGradient id="paint15_linear_969_342" x1="-1.01616" y1="10.1644" x2="123.222" y2="18.04" gradientUnits="userSpaceOnUse">
<stop stop-color="#147117"/>
<stop offset="1" stop-color="#16A349"/>
</linearGradient>
<linearGradient id="paint16_linear_969_342" x1="-1.01619" y1="10.1644" x2="123.222" y2="18.0399" gradientUnits="userSpaceOnUse">
<stop stop-color="#147117"/>
<stop offset="1" stop-color="#16A349"/>
</linearGradient>
<linearGradient id="paint17_linear_969_342" x1="-1.01617" y1="10.1644" x2="123.222" y2="18.04" gradientUnits="userSpaceOnUse">
<stop stop-color="#147117"/>
<stop offset="1" stop-color="#16A349"/>
</linearGradient>
<linearGradient id="paint18_linear_969_342" x1="-1.01607" y1="10.1644" x2="123.222" y2="18.04" gradientUnits="userSpaceOnUse">
<stop stop-color="#147117"/>
<stop offset="1" stop-color="#16A349"/>
</linearGradient>
<linearGradient id="paint19_linear_969_342" x1="-1.01614" y1="10.1644" x2="123.222" y2="18.0399" gradientUnits="userSpaceOnUse">
<stop stop-color="#147117"/>
<stop offset="1" stop-color="#16A349"/>
</linearGradient>
</defs>
</svg>
